<?xml version="1.0" standalone="no"?>
<!DOCTYPE svg PUBLIC "-//W3C//DTD SVG 20010904//EN"
 "http://www.w3.org/TR/2001/REC-SVG-20010904/DTD/svg10.dtd">
<svg version="1.0" xmlns="http://www.w3.org/2000/svg"
 width="4277.000000pt" height="4263.000000pt" viewBox="0 0 4277.000000 4263.000000"
 preserveAspectRatio="xMidYMid meet">
<metadata>
Created by potrace 1.16, written by Peter Selinger 2001-2019
</metadata>
<g transform="translate(0.000000,4263.000000) scale(0.100000,-0.100000)"
fill="#000000" stroke="none">
<path d="M10085 42619 c-186 -10 -486 -39 -770 -75 -1595 -200 -3176 -789
-4530 -1690 -623 -414 -1135 -832 -1650 -1348 -556 -557 -1021 -1132 -1433
-1772 -1015 -1576 -1590 -3359 -1692 -5244 -14 -254 -14 -22094 0 -22350 106
-1972 736 -3846 1839 -5465 683 -1003 1542 -1894 2507 -2601 392 -287 794
-544 1182 -756 1026 -560 2142 -955 3254 -1152 367 -65 536 -87 1058 -138 200
-19 22870 -19 23070 0 757 73 1175 142 1770 292 1067 268 2126 718 3045 1293
1265 793 2320 1803 3162 3027 787 1144 1346 2441 1637 3800 97 455 154 837
208 1400 19 200 19 22751 0 22950 -56 580 -109 937 -208 1400 -372 1738 -1176
3358 -2341 4716 -742 865 -1649 1631 -2613 2206 -544 324 -1162 622 -1745 841
-753 282 -1561 485 -2335 586 -260 34 -634 69 -847 80 -249 13 -22324 12
-22568 0z m27320 -10298 c703 -62 1299 -220 1714 -455 324 -183 608 -418 808
-666 111 -137 143 -193 143 -248 0 -72 -53 -152 -114 -172 -17 -5 -143 -32
-281 -60 -1461 -297 -3436 -750 -5275 -1210 -8546 -2136 -15846 -4749 -20905
-7482 -2532 -1368 -4202 -2468 -5335 -3513 -193 -177 -541 -530 -680 -690
-292 -333 -525 -654 -714 -983 -244 -425 -410 -884 -452 -1251 -21 -177 -24
-582 -6 -751 80 -752 319 -1334 779 -1899 106 -130 402 -427 538 -540 948
-787 2281 -1351 4035 -1706 1691 -342 3693 -465 5875 -360 2869 139 5971 670
9005 1541 2735 786 5271 1826 7315 2999 2210 1269 3800 2656 4630 4040 206
344 399 775 490 1095 29 101 40 123 51 97 12 -32 -83 -385 -165 -615 -271
-755 -742 -1527 -1388 -2275 -379 -438 -879 -929 -1378 -1352 -1427 -1211
-3311 -2347 -5497 -3316 -1936 -859 -4146 -1594 -6398 -2128 -2462 -584 -4953
-945 -7350 -1066 -688 -34 -934 -40 -1810 -40 -880 0 -1125 6 -1765 41 -4867
263 -8571 1624 -10133 3721 -451 607 -724 1278 -793 1948 -15 148 -15 532 0
680 27 269 101 709 157 935 54 222 177 594 269 815 84 204 297 634 413 835
706 1225 1845 2481 3412 3761 1657 1354 3765 2714 6200 3999 423 223 1398 710
1760 879 157 73 295 143 308 156 14 13 26 39 29 65 9 62 -17 104 -82 135 -29
13 -950 421 -2046 905 -1097 485 -2014 893 -2039 907 -25 14 -77 59 -116 98
-131 132 -204 327 -189 502 23 272 190 513 439 633 45 21 108 46 141 54 153
41 -88 65 4629 -472 l4379 -500 261 75 c1217 346 2812 754 4261 1088 3571 824
6914 1383 9690 1620 165 14 453 39 640 55 414 36 683 56 960 70 116 6 237 12
270 14 140 8 1190 -3 1310 -13z m-26937 -6313 c17 -17 15 -53 -5 -70 -10 -9
-641 -446 -1402 -972 -1237 -855 -1387 -956 -1421 -956 -33 0 -126 58 -731
454 -384 252 -718 477 -747 505 -105 99 -146 247 -102 364 28 75 56 101 387
366 209 167 273 213 315 226 46 15 267 22 1693 55 1896 43 1996 45 2013 28z
m14689 -139 c23 -11 51 -33 62 -47 24 -34 1663 -3104 1747 -3272 99 -199 127
-286 128 -400 1 -87 -1 -99 -27 -143 -34 -58 -115 -123 -216 -174 -71 -36 -79
-38 -170 -38 -78 1 -110 6 -171 27 -93 33 -5019 2308 -5070 2342 -80 53 -115
195 -71 292 41 90 -42 56 1868 771 1931 723 1826 688 1920 642z m5448 -4579
c1618 -48 2854 -251 3812 -625 159 -63 515 -238 638 -316 352 -221 623 -490
763 -758 64 -122 96 -205 130 -341 24 -96 27 -122 27 -310 0 -178 -3 -219 -23
-310 -113 -509 -443 -1035 -992 -1580 -1018 -1012 -2717 -2042 -4930 -2990
-1289 -551 -2870 -1101 -4395 -1529 -3035 -850 -6080 -1348 -8825 -1442 -382
-13 -1569 -7 -1855 10 -1359 80 -2349 248 -3158 535 -1056 376 -1647 916
-1754 1601 -20 132 -12 370 17 508 54 257 190 565 370 835 55 84 104 152 109
152 5 0 -13 -51 -41 -112 -102 -229 -146 -401 -155 -608 -11 -261 57 -491 215
-730 67 -102 271 -309 389 -395 694 -506 1851 -813 3443 -915 651 -41 1550
-41 2320 0 4503 243 9905 1751 13227 3691 643 376 1170 743 1639 1144 149 126
497 471 601 595 312 373 506 727 578 1060 25 116 31 355 11 469 -46 261 -164
480 -376 692 -63 63 -161 150 -217 192 -1018 760 -3232 1083 -6108 892 -2081
-139 -4501 -568 -6730 -1193 -193 -55 -229 -62 -213 -46 22 21 1194 364 1793
524 3396 907 6939 1382 9690 1300z"/>
</g>
</svg>
